<svg width="57" height="57" viewBox="0 0 57 57" fill="none" xmlns="http://www.w3.org/2000/svg">
<path d="M28.4998 42.75C29.5796 42.75 30.6152 43.1789 31.3787 43.9425C32.1423 44.706 32.5712 45.7416 32.5712 46.8214C32.5712 47.9012 32.1423 48.9368 31.3787 49.7003C30.6152 50.4639 29.5796 50.8928 28.4998 50.8928C27.42 50.8928 26.3844 50.4639 25.6209 49.7003C24.8573 48.9368 24.4284 47.9012 24.4284 46.8214C24.4284 45.7416 24.8573 44.706 25.6209 43.9425C26.3844 43.1789 27.42 42.75 28.4998 42.75ZM46.8212 42.75C47.901 42.75 48.9366 43.1789 49.7001 43.9425C50.4637 44.706 50.8926 45.7416 50.8926 46.8214C50.8926 47.9012 50.4637 48.9368 49.7001 49.7003C48.9366 50.4639 47.901 50.8928 46.8212 50.8928C45.7414 50.8928 44.7058 50.4639 43.9423 49.7003C43.1787 48.9368 42.7498 47.9012 42.7498 46.8214C42.7498 45.7416 43.1787 44.706 43.9423 43.9425C44.7058 43.1789 45.7414 42.75 46.8212 42.75ZM10.1784 42.75C11.2582 42.75 12.2938 43.1789 13.0573 43.9425C13.8208 44.706 14.2498 45.7416 14.2498 46.8214C14.2498 47.9012 13.8208 48.9368 13.0573 49.7003C12.2938 50.4639 11.2582 50.8928 10.1784 50.8928C9.09855 50.8928 8.06297 50.4639 7.29943 49.7003C6.53589 48.9368 6.10693 47.9012 6.10693 46.8214C6.10693 45.7416 6.53589 44.706 7.29943 43.9425C8.06297 43.1789 9.09855 42.75 10.1784 42.75ZM28.4998 24.4285C29.5796 24.4285 30.6152 24.8575 31.3787 25.621C32.1423 26.3846 32.5712 27.4202 32.5712 28.5C32.5712 29.5798 32.1423 30.6154 31.3787 31.3789C30.6152 32.1424 29.5796 32.5714 28.4998 32.5714C27.42 32.5714 26.3844 32.1424 25.6209 31.3789C24.8573 30.6154 24.4284 29.5798 24.4284 28.5C24.4284 27.4202 24.8573 26.3846 25.6209 25.621C26.3844 24.8575 27.42 24.4285 28.4998 24.4285ZM46.8212 24.4285C47.901 24.4285 48.9366 24.8575 49.7001 25.621C50.4637 26.3846 50.8926 27.4202 50.8926 28.5C50.8926 29.5798 50.4637 30.6154 49.7001 31.3789C48.9366 32.1424 47.901 32.5714 46.8212 32.5714C45.7414 32.5714 44.7058 32.1424 43.9423 31.3789C43.1787 30.6154 42.7498 29.5798 42.7498 28.5C42.7498 27.4202 43.1787 26.3846 43.9423 25.621C44.7058 24.8575 45.7414 24.4285 46.8212 24.4285ZM10.1784 24.4285C11.2582 24.4285 12.2938 24.8575 13.0573 25.621C13.8208 26.3846 14.2498 27.4202 14.2498 28.5C14.2498 29.5798 13.8208 30.6154 13.0573 31.3789C12.2938 32.1424 11.2582 32.5714 10.1784 32.5714C9.09855 32.5714 8.06297 32.1424 7.29943 31.3789C6.53589 30.6154 6.10693 29.5798 6.10693 28.5C6.10693 27.4202 6.53589 26.3846 7.29943 25.621C8.06297 24.8575 9.09855 24.4285 10.1784 24.4285ZM28.4998 6.10712C29.5796 6.10712 30.6152 6.53607 31.3787 7.29961C32.1423 8.06315 32.5712 9.09874 32.5712 10.1785C32.5712 11.2584 32.1423 12.2939 31.3787 13.0575C30.6152 13.821 29.5796 14.25 28.4998 14.25C27.42 14.25 26.3844 13.821 25.6209 13.0575C24.8573 12.2939 24.4284 11.2584 24.4284 10.1785C24.4284 9.09874 24.8573 8.06315 25.6209 7.29961C26.3844 6.53607 27.42 6.10712 28.4998 6.10712ZM46.8212 6.10712C47.901 6.10712 48.9366 6.53607 49.7001 7.29961C50.4637 8.06315 50.8926 9.09874 50.8926 10.1785C50.8926 11.2584 50.4637 12.2939 49.7001 13.0575C48.9366 13.821 47.901 14.25 46.8212 14.25C45.7414 14.25 44.7058 13.821 43.9423 13.0575C43.1787 12.2939 42.7498 11.2584 42.7498 10.1785C42.7498 9.09874 43.1787 8.06315 43.9423 7.29961C44.7058 6.53607 45.7414 6.10712 46.8212 6.10712ZM10.1784 6.10712C11.2582 6.10712 12.2938 6.53607 13.0573 7.29961C13.8208 8.06315 14.2498 9.09874 14.2498 10.1785C14.2498 11.2584 13.8208 12.2939 13.0573 13.0575C12.2938 13.821 11.2582 14.25 10.1784 14.25C9.09855 14.25 8.06297 13.821 7.29943 13.0575C6.53589 12.2939 6.10693 11.2584 6.10693 10.1785C6.10693 9.09874 6.53589 8.06315 7.29943 7.29961C8.06297 6.53607 9.09855 6.10712 10.1784 6.10712Z" fill="#656565"/>
</svg>
